#!OML:ASF H:\Not Pregnant\Project 1\Capture day 1\Session 1\non-pregnant.ASF
:FULLY-SPECIFIED
:DEGREES
352
root 4.97544 20.7622 10.9474 1.72142 78.7011 -16.2839
lowerback -2.7994 1.04653 1.64964
upperback -8.54582 1.6497 -0.824974
thorax -7.28041 0.79006 -1.858
lowerneck 25.4073 -13.522 -29.8731
upperneck -10.9118 -24.0252 44.617
head 3.44445 -15.0704 22.5306
rclavicle -2.68359e-014 -1.11319e-014
rhumerus -34.6547 -13.7407 -74.7613
rradius 30.2011
rwrist 20.3912
rhand -17.826 -3.93383
rfingers 7.12502
rthumb 8.43827 -33.7453
lclavicle -2.68359e-014 -1.11319e-014
lhumerus -49.3941 -19.3135 89.3862
lradius 32.1549
lwrist 35.9352
lhand -18.6858 -10.7183
lfingers 7.12502
lthumb 7.6084 19.1248
rfemur -30.9699 21.8598 14.7147
rtibia 35.0902
rfoot -18.1745 15.9631
rtoes -7.39702
lfemur -29.3777 -2.5738 -14.8553
ltibia 30.9313
lfoot -16.9318 -15.4536
ltoes -3.27624
353
root 4.96398 20.7637 10.9082 3.44458 77.4491 -14.6797
lowerback -2.70465 1.07916 1.56495
upperback -8.54147 1.68287 -0.909898
thorax -7.32837 0.805786 -1.90303
lowerneck 25.7127 -13.5793 -29.7352
upperneck -11.2035 -24.0768 44.7622
head 3.34413 -15.1558 22.6326
rclavicle -1.92821e-014 -7.55382e-015
rhumerus -34.6195 -14.0644 -74.8145
rradius 30.3028
rwrist 20.4362
rhand -18.0941 -3.9816
rfingers 7.12502
rthumb 8.17951 -33.8033
lclavicle -1.92821e-014 -7.55382e-015
lhumerus -49.3081 -19.7596 89.0044
lradius 32.1429
lwrist 35.9819
lhand -18.7436 -10.7295
lfingers 7.12502
lthumb 7.55264 19.1156
rfemur -31.0106 20.2151 15.3893
rtibia 35.5808
rfoot -18.6026 14.0401
rtoes -8.77633
lfemur -29.3515 -2.01481 -15.1803
ltibia 30.9433
lfoot -17.1176 -14.6622
ltoes -4.27855
354
root 4.95302 20.7647 10.8714 4.83068 76.1613 -13.4071
lowerback -2.61559 1.11364 1.4587
upperback -8.5356 1.71891 -0.975452
thorax -7.37235 0.825256 -1.91575
lowerneck 25.9865 -13.6257 -29.6251
upperneck -11.4643 -24.1238 44.8892
head 3.25642 -15.2335 22.7263
rclavicle 1.52629e-014 2.38542e-015
rhumerus -34.5787 -14.3548 -74.8916
rradius 30.3798
rwrist 20.4941
rhand -18.3468 -4.03269
rfingers 7.12502
rthumb 7.93565 -33.8637
lclavicle 1.52629e-014 2.38542e-015
lhumerus -49.162 -20.0376 88.5302
lradius 32.0625
lwrist 35.9359
lhand -18.7587 -10.7405
lfingers 7.12502
lthumb 7.5381 19.1051
rfemur -31.061 18.5434 16.1036
rtibia 36.0714
rfoot -18.9309 12.2087
rtoes -10.0127
lfemur -29.3243 -1.45864 -15.4813
ltibia 30.968
lfoot -17.3181 -13.818
ltoes -5.45229
355
root 4.94212 20.7655 10.8354 6.02349 74.8535 -12.3312
lowerback -2.53243 1.14808 1.33441
upperback -8.52931 1.75527 -1.02451
thorax -7.41347 0.846869 -1.90106
lowerneck 26.2148 -13.6634 -29.5575
upperneck -11.6966 -24.1731 44.9996
head 3.1894 -15.3059 22.8099
rclavicle 6.49156e-016 7.15625e-015
rhumerus -34.522 -14.618 -74.9764
rradius 30.4263
rwrist 20.5649
rhand -18.5786 -4.08107
rfingers 7.12502
rthumb 7.71191 -33.9204
lclavicle 6.49156e-016 7.15625e-015
lhumerus -48.952 -20.1545 87.9835
lradius 31.9213
lwrist 35.812
lhand -18.7498 -10.7404
lfingers 7.12502
lthumb 7.54666 19.105
rfemur -31.1395 16.8164 16.831
rtibia 36.5685
rfoot -19.1716 10.5231
rtoes -11.1225
lfemur -29.3098 -0.916301 -15.7804
ltibia 31.0041
lfoot -17.5079 -12.9405
ltoes -6.65416
356
root 4.9306 20.7658 10.8011 7.04462 73.5174 -11.4427
lowerback -2.45849 1.19901 1.19759
upperback -8.5307 1.81391 -1.07252
thorax -7.45726 0.880681 -1.87917
lowerneck 26.4164 -13.7057 -29.5034
upperneck -11.9065 -24.2348 45.1025
head 3.1395 -15.3806 22.8816
rclavicle -2.85939e-014 5.56597e-015
rhumerus -34.4743 -14.9196 -75.0554
rradius 30.4444
rwrist 20.6638
rhand -18.7853 -4.12419
rfingers 7.12502
rthumb 7.51241 -33.9708
lclavicle -2.85939e-014 5.56597e-015
lhumerus -48.6781 -20.1607 87.368
lradius 31.7117
lwrist 35.6397
lhand -18.7464 -10.7458
lfingers 7.12502
lthumb 7.54996 19.0994
rfemur -31.2674 15.0663 17.5779
rtibia 37.0743
rfoot -19.3378 8.96832
rtoes -12.2022
lfemur -29.3259 -0.351189 -16.0667
ltibia 31.0572
lfoot -17.6837 -12.0564
ltoes -7.85796
357
root 4.919 20.7667 10.766 7.96469 72.1769 -10.6659
lowerback -2.38411 1.26122 1.0792
upperback -8.54009 1.88773 -1.13227
thorax -7.50887 0.92044 -1.8809
lowerneck 26.6002 -13.7501 -29.4518
upperneck -12.1053 -24.2986 45.1989
head 3.0957 -15.4537 22.9452
rclavicle -8.32224e-014 -2.3059e-014
rhumerus -34.4368 -15.2456 -75.1318
rradius 30.4371
rwrist 20.7601
rhand -18.9677 -4.17076
rfingers 7.12502
rthumb 7.33634 -34.0236
lclavicle -8.32224e-014 -2.3059e-014
lhumerus -48.3549 -20.0796 86.7043
lradius 31.4552
lwrist 35.4473
lhand -18.7915 -10.7414
lfingers 7.12502
lthumb 7.50637 19.1054
rfemur -31.4368 13.2729 18.3166
rtibia 37.5895
rfoot -19.4435 7.5992
rtoes -13.0764
lfemur -29.3635 0.185921 -16.3513
ltibia 31.124
lfoot -17.7974 -11.2162
ltoes -8.58827
358
root 4.90744 20.7675 10.7317 8.69431 70.8114 -10.093
lowerback -2.31207 1.33326 0.986175
upperback -8.55554 1.97607 -1.18027
thorax -7.5651 0.966224 -1.88539
lowerneck 26.7513 -13.7907 -29.4184
upperneck -12.2754 -24.3648 45.2866
head 3.06793 -15.5233 23.0001
rclavicle -1.22202e-014 1.19271e-014
rhumerus -34.3985 -15.5647 -75.2066
rradius 30.4025
rwrist 20.8657
rhand -19.0914 -4.19964
rfingers 7.12502
rthumb 7.21694 -34.0566
lclavicle -1.22202e-014 1.19271e-014
lhumerus -47.9836 -19.8692 85.9783
lradius 31.1462
lwrist 35.2166
lhand -18.8863 -10.7314
lfingers 7.12502
lthumb 7.41492 19.1187
rfemur -31.6463 11.5069 19.0874
rtibia 38.1084
rfoot -19.4994 6.3643
rtoes -13.8224
lfemur -29.4201 0.732583 -16.5927
ltibia 31.2074
lfoot -17.8779 -10.4032
ltoes -9.02177
359
root 4.89626 20.7682 10.6977 9.35261 69.4189 -9.59663
lowerback -2.23655 1.40472 0.899575
upperback -8.57828 2.06389 -1.22789
thorax -7.63139 1.01129 -1.89365
lowerneck 26.8634 -13.8162 -29.4101
upperneck -12.3964 -24.4235 45.3677
head 3.06024 -15.5835 23.054
rclavicle -1.63547e-014 -1.59028e-015
rhumerus -34.3503 -15.8261 -75.3121
rradius 30.3388
rwrist 20.9475
rhand -19.1652 -4.22491
rfingers 7.12502
rthumb 7.14564 -34.0843
lclavicle -1.63547e-014 -1.59028e-015
lhumerus -47.5955 -19.535 85.1939
lradius 30.8152
lwrist 34.9835
lhand -19.0277 -10.7099
lfingers 7.12502
lthumb 7.27839 19.1449
rfemur -31.8915 9.77053 19.8518
rtibia 38.63
rfoot -19.5131 5.27635
rtoes -14.4182
lfemur -29.4834 1.27123 -16.8272
ltibia 31.2981
lfoot -17.9352 -9.59147
ltoes -9.26641
360
root 4.88664 20.7686 10.6635 9.90022 67.9934 -9.20029
lowerback -2.15645 1.47389 0.831914
upperback -8.5985 2.14929 -1.26397
thorax -7.69765 1.0542 -1.90061
lowerneck 26.9308 -13.8215 -29.4297
upperneck -12.464 -24.4681 45.4359
head 3.07082 -15.6296 23.1045
rclavicle -3.4368e-014 1.59028e-015
rhumerus -34.2879 -15.996 -75.4558
rradius 30.2546
rwrist 20.9855
rhand -19.2031 -4.25369
rfingers 7.12502
rthumb 7.10907 -34.1143
lclavicle -3.4368e-014 1.59028e-015
lhumerus -47.1807 -19.0329 84.3465
lradius 30.4468
lwrist 34.7237
lhand -19.2109 -10.6815
lfingers 7.12502
lthumb 7.10155 19.1793
rfemur -32.1467 8.07912 20.6201
rtibia 39.1505
rfoot -19.4834 4.34024
rtoes -14.8166
lfemur -29.5285 1.79992 -17.0468
ltibia 31.3938
lfoot -17.9919 -8.74346
ltoes -9.46535
361
root 4.87793 20.7689 10.6293 10.3869 66.5458 -8.85233
lowerback -2.0711 1.52942 0.753261
upperback -8.61639 2.21654 -1.28491
thorax -7.76618 1.08932 -1.88513
lowerneck 26.9593 -13.8014 -29.4666
upperneck -12.482 -24.486 45.4852
head 3.08814 -15.6551 23.1515
rclavicle -3.18366e-014 -1.66979e-014
rhumerus -34.2122 -16.0791 -75.6426
rradius 30.1499
rwrist 21.0123
rhand -19.2122 -4.28436
rfingers 7.12502
rthumb 7.10031 -34.1453
lclavicle -3.18366e-014 -1.66979e-014
lhumerus -46.7814 -18.3885 83.4611
lradius 30.0866
lwrist 34.4855
lhand -19.4482 -10.6349
lfingers 7.12502
lthumb 6.8725 19.2336
rfemur -32.4159 6.44532 21.3677
rtibia 39.6716
rfoot -19.3955 3.56959
rtoes -14.8582
lfemur -29.555 2.32055 -17.2699
ltibia 31.4829
lfoot -18.0531 -7.84863
ltoes -9.773
362
root 4.86981 20.7689 10.5952 10.8288 65.0835 -8.54099
lowerback -1.98794 1.57705 0.658795
upperback -8.63071 2.27295 -1.29601
thorax -7.83105 1.12058 -1.85002
lowerneck 26.9579 -13.7684 -29.4988
upperneck -12.4672 -24.4828 45.514
head 3.10384 -15.6637 23.1866
rclavicle -8.3384e-014 -5.56597e-015
rhumerus -34.1326 -16.1172 -75.858
rradius 30.028
rwrist 21.0402
rhand -19.1833 -4.3033
rfingers 7.12502
rthumb 7.12821 -34.1633
lclavicle -8.3384e-014 -5.56597e-015
lhumerus -46.3754 -17.616 82.5449
lradius 29.7159
lwrist 34.2596
lhand -19.7385 -10.5751
lfingers 7.12502
lthumb 6.5923 19.3023
rfemur -32.704 4.8663 22.095
rtibia 40.1887
rfoot -19.2495 2.93786
rtoes -14.6371
lfemur -29.5721 2.84575 -17.5029
ltibia 31.5627
lfoot -18.1226 -6.90367
ltoes -10.3279
363
root 4.86244 20.7686 10.5609 11.2426 63.6154 -8.25056
lowerback -1.91108 1.62894 0.555717
upperback -8.64012 2.33441 -1.3096
thorax -7.88718 1.15496 -1.81273
lowerneck 26.9519 -13.7373 -29.5032
upperneck -12.4527 -24.4672 45.5291
head 3.10574 -15.6637 23.2088
rclavicle 6.40459e-015 -4.77083e-015
rhumerus -34.0657 -16.1675 -76.0797
rradius 29.8943
rwrist 21.0879
rhand -19.1196 -4.30914
rfingers 7.12502
rthumb 7.18968 -34.167
lclavicle 6.40459e-015 -4.77083e-015
lhumerus -45.9795 -16.8022 81.639
lradius 29.3703
lwrist 34.0865
lhand -20.0996 -10.4805
lfingers 7.12502
lthumb 6.2437 19.4075
rfemur -33.0096 3.3258 22.7975
rtibia 40.6961
rfoot -19.0595 2.44457
rtoes -14.2382
lfemur -29.5786 3.37559 -17.7516
ltibia 31.6269
lfoot -18.1883 -5.93583
ltoes -11.0241
364
root 4.85586 20.768 10.5265 11.6199 62.1554 -7.98411
lowerback -1.82458 1.68499 0.46307
upperback -8.6507 2.40094 -1.33428
thorax -7.94948 1.19064 -1.79376
lowerneck 26.9498 -13.7094 -29.4827
upperneck -12.4316 -24.4459 45.5356
head 3.09907 -15.6599 23.222
rclavicle -2.46555e-014 9.54166e-015
rhumerus -34.0316 -16.2613 -76.2938
rradius 29.7519
rwrist 21.2
rhand -19.0041 -4.28975
rfingers 7.12502
rthumb 7.30117 -34.1438
lclavicle -2.46555e-014 9.54166e-015
lhumerus -45.6019 -15.9708 80.7453
lradius 29.0459
lwrist 33.9559
lhand -20.5206 -10.3642
lfingers 7.12502
lthumb 5.83717 19.5354
rfemur -33.3176 1.80783 23.4854
rtibia 41.1835
rfoot -18.8516 2.0514
rtoes -13.8933
lfemur -29.5737 3.91651 -18.0146
ltibia 31.6789
lfoot -18.2503 -4.95448
ltoes -11.9102
365
root 4.85061 20.7674 10.494 11.9518 60.7182 -7.72875
lowerback -1.72275 1.73914 0.355661
upperback -8.65292 2.46374 -1.3618
thorax -8.01238 1.22527 -1.76993
lowerneck 26.9488 -13.6841 -29.4447
upperneck -12.4086 -24.4202 45.5338
head 3.08523 -15.6527 23.2267
rclavicle 8.53532e-015 -2.62396e-014
rhumerus -34.0239 -16.3632 -76.5059
rradius 29.5964
rwrist 21.3643
rhand -18.8712 -4.26772
rfingers 7.12502
rthumb 7.42949 -34.1173
lclavicle 8.53532e-015 -2.62396e-014
lhumerus -45.2588 -15.1534 79.8945
lradius 28.7711
lwrist 33.8867
lhand -21.0069 -10.2092
lfingers 7.12502
lthumb 5.36766 19.7028
rfemur -33.5912 0.320674 24.155
rtibia 41.6381
rfoot -18.6481 1.73764
rtoes -13.6097
lfemur -29.5273 4.44881 -18.277
ltibia 31.7236
lfoot -18.3013 -4.02969
ltoes -12.5891
366
root 4.84609 20.7665 10.4633 12.2384 59.3036 -7.49626
lowerback -1.6021 1.79286 0.242624
upperback -8.6539 2.52538 -1.3901
thorax -8.08541 1.25957 -1.74473
lowerneck 26.9502 -13.6623 -29.3987
upperneck -12.383 -24.3964 45.5277
head 3.0698 -15.646 23.2257
rclavicle 5.8393e-015 7.15625e-015
rhumerus -34.0443 -16.4679 -76.7092
rradius 29.4302
rwrist 21.5685
rhand -18.7074 -4.22153
rfingers 7.12502
rthumb 7.5876 -34.0654
lclavicle 5.8393e-015 7.15625e-015
lhumerus -44.9544 -14.3557 79.0865
lradius 28.5448
lwrist 33.8829
lhand -21.5295 -10.048
lfingers 7.12502
lthumb 4.86312 19.8761
rfemur -33.8392 -1.13844 24.8139
rtibia 42.0485
rfoot -18.4663 1.49253
rtoes -13.5166
lfemur -29.4606 4.97801 -18.5324
ltibia 31.7715
lfoot -18.3496 -3.15053
ltoes -13.1296
